# Blender v3.0.0 OBJ File: ''
# www.blender.org
mtllib diamond_small.mtl
o diamond
v 0.000000 -0.000001 18.424829
v 10.629709 10.629709 0.000000
v 10.629709 -10.629709 -0.000000
v -10.629709 -10.629709 -0.000000
v -10.629709 10.629709 0.000000
v 0.000000 0.000001 -18.424829
vn -0.8662 0.0000 -0.4997
vn 0.0000 0.8662 -0.4997
vn 0.8662 0.0000 -0.4997
vn 0.0000 -0.8662 -0.4997
vn 0.8662 -0.0000 0.4997
vn 0.0000 0.8662 0.4997
vn -0.8662 -0.0000 0.4997
vn 0.7071 -0.7071 -0.0000
vn -0.7071 -0.7071 -0.0000
usemtl Default_OBJ
s off
f 1//1 2//1 3//1
f 1//2 3//2 4//2
f 1//3 4//3 5//3
f 1//4 5//4 2//4
f 6//5 5//5 4//5
f 6//6 4//6 3//6
f 6//7 3//7 2//7
f 6//8 2//8 1//8
f 6//9 1//9 5//9
