# Blender v3.0.0 OBJ File: ''
# www.blender.org
v -5.000000 -0.200000 -5.000000
v 5.000000 -0.200000 5.000000
v -5.000000 -0.200000 5.000000
v 5.000000 0.300000 5.000000
v -5.000000 0.300000 -5.000000
v -5.000000 0.300000 5.000000
v 5.000000 0.300000 -5.000000
v 5.000000 -0.200000 -5.000000
vt 0.000000 1.000000
vt 1.000000 0.000000
vt 0.000000 0.000000
vt 1.000000 0.000000
vt 0.000000 1.000000
vt 0.000000 0.000000
vt 1.000000 1.000000
vt 1.000000 1.000000
vn 0.0000 -1.0000 -0.0000
vn 0.0000 1.0000 0.0000
vn 0.0000 0.0000 -1.0000
vn 0.0000 0.0000 1.0000
vn 1.0000 0.0000 0.0000
vn -1.0000 0.0000 0.0000

s 1
f 1/1/1 2/2/1 3/3/1
f 4/4/2 5/5/2 6/6/2
f 1/1/3 7/7/3 8/8/3
f 2/2/4 6/6/4 3/3/4
f 8/8/5 4/4/5 2/2/5
f 3/3/6 5/5/6 1/1/6
f 1/1/1 8/8/1 2/2/1
f 4/4/2 7/7/2 5/5/2
f 1/1/3 5/5/3 7/7/3
f 2/2/4 4/4/4 6/6/4
f 8/8/5 7/7/5 4/4/5
f 3/3/6 6/6/6 5/5/6
